<svg width="420" height="90" viewBox="0 0 420 90" fill="none" xmlns="http://www.w3.org/2000/svg">
<g clip-path="url(#clip0_4218_5)">
<path d="M341.211 53.67C341.211 30.0925 355.874 17.543 380.484 17.543C405.985 17.543 419.756 31.1065 419.756 53.67C419.756 76.2335 405.985 89.7967 380.484 89.7967C354.982 89.7967 341.211 76.2335 341.211 53.67ZM380.484 34.6558C371.43 34.6558 364.8 37.698 361.485 43.4023C359.393 47.334 359.189 50.1979 359.189 53.67C359.189 57.142 359.393 59.7191 361.485 63.9376C364.8 69.6419 371.43 72.6843 380.484 72.6843C389.792 72.6843 396.167 69.5156 399.482 63.9376C401.778 59.7191 401.778 57.142 401.778 53.67C401.778 50.1979 401.778 47.2638 399.482 43.4023C396.167 37.8248 389.792 34.6558 380.484 34.6558Z" fill="#0F172B"/>
</g>
<path d="M335.958 0V88.7328H318.106V0H335.958Z" fill="#0F172B"/>
<path d="M275.271 34.859C261.754 34.859 253.849 41.4505 253.849 53.8731C253.849 65.7887 261.372 72.8874 275.271 72.8874C285.726 72.8874 292.867 68.9578 295.545 61.3519H314.033C311.101 80.1127 297.075 90.0001 275.271 90.0001C249.769 90.0001 235.998 76.4366 235.998 53.8731C235.998 30.2956 250.661 17.7461 275.271 17.7461C297.712 17.7461 311.101 28.2674 313.906 46.1406H295.417C292.739 38.9153 285.854 34.859 275.271 34.859Z" fill="#0F172B"/>
<path d="M230.135 0H212.283V11.4085H230.135V0Z" fill="url(#paint0_linear_4218_5)"/>
<path d="M230.135 0H212.283V11.4085H230.135V0Z" fill="url(#paint1_linear_4218_5)"/>
<path d="M230.135 19.0156V88.7343H212.283V19.0156H230.135Z" fill="#0F172B"/>
<path d="M162.177 64.0144V34.2254H152.997V19.0141H162.177V0H180.029V19.0141H207.06V34.2254H180.029V63.5074C180.029 70.3524 184.236 72.2539 189.082 72.2539H207.06V88.7328H185.129C173.781 88.7328 162.177 83.7892 162.177 64.0144Z" fill="#0F172B"/>
<path d="M101.105 19.0137H118.957V31.056C124.185 22.4363 132.983 19.0137 145.224 19.0137H153.13V34.2249H145.224C128.775 34.2249 118.957 44.6195 118.957 55.5209V88.7323H101.105V19.0137Z" fill="#0F172B"/>
<path d="M68.8551 0L96.9071 88.7328H76.5056L48.4536 0H68.8551Z" fill="#0F172B"/>
<path d="M28.0521 0H48.4536L20.4015 88.733H0L28.0521 0Z" fill="url(#paint2_linear_4218_5)"/>
<defs>
<linearGradient id="paint0_linear_4218_5" x1="212.283" y1="5.70423" x2="230.135" y2="5.70423" gradientUnits="userSpaceOnUse">
<stop stop-color="#314158"/>
<stop offset="1" stop-color="#6B8DBE"/>
</linearGradient>
<linearGradient id="paint1_linear_4218_5" x1="212.206" y1="11.3793" x2="214.899" y2="-2.85302" gradientUnits="userSpaceOnUse">
<stop stop-color="#FA6262"/>
<stop offset="1" stop-color="#F8875E"/>
</linearGradient>
<linearGradient id="paint2_linear_4218_5" x1="-0.209951" y1="88.5063" x2="47.8374" y2="-0.100421" gradientUnits="userSpaceOnUse">
<stop stop-color="#FA6262"/>
<stop offset="1" stop-color="#F8875E"/>
</linearGradient>
<clipPath id="clip0_4218_5">
<rect width="78.7894" height="72.3019" fill="white" transform="translate(341.211 17.543)"/>
</clipPath>
</defs>
</svg>
